<svg width="16" height="89" viewBox="0 0 16 89" fill="none" xmlns="http://www.w3.org/2000/svg">
<path d="M9 1C9 0.447715 8.55228 -2.41411e-08 8 0C7.44772 2.41411e-08 7 0.447715 7 1L9 1ZM7.2929 88.7071C7.68342 89.0976 8.31659 89.0976 8.70711 88.7071L15.0711 82.3431C15.4616 81.9526 15.4616 81.3195 15.0711 80.9289C14.6805 80.5384 14.0474 80.5384 13.6569 80.9289L8 86.5858L2.34315 80.9289C1.95262 80.5384 1.31946 80.5384 0.928936 80.9289C0.538411 81.3195 0.538411 81.9526 0.928936 82.3431L7.2929 88.7071ZM8 1L7 1L7 88L8 88L9 88L9 1L8 1Z" fill="#D7D3D1"/>
</svg>
